Coordinates
version=1
nRows=8
nColumns=40
inDegrees=yes

Units are S.I. units (second, meters, Newtons, ...)
If the header above contains a line with 'inDegrees', this indicates whether rotational values are in degrees (yes) or radians (no).

endheader
time	pelvis_tilt	pelvis_list	pelvis_rotation	pelvis_tx	pelvis_ty	pelvis_tz	hip_flexion_r	hip_adduction_r	hip_rotation_r	knee_angle_r	knee_angle_r_beta	ankle_angle_r	subtalar_angle_r	mtp_angle_r	hip_flexion_l	hip_adduction_l	hip_rotation_l	knee_angle_l	knee_angle_l_beta	ankle_angle_l	subtalar_angle_l	mtp_angle_l	lumbar_extension	lumbar_bending	lumbar_rotation	arm_flex_r	arm_add_r	arm_rot_r	elbow_flex_r	pro_sup_r	wrist_flex_r	wrist_dev_r	arm_flex_l	arm_add_l	arm_rot_l	elbow_flex_l	pro_sup_l	wrist_flex_l	wrist_dev_l
      0.00000000	     20.09459905	      3.05202147	      5.02985905	      0.01978467	      0.97593343	     -0.32539997	      2.38606680	     -6.26429741	    -12.14374217	     30.10643157	      0.52545636	     -6.78221479	      0.00000000	      0.00000000	    -28.17531001	      3.52332544	      6.13025158	      8.94448157	      0.15611065	     -3.76575070	      0.00000000	      0.00000000	    -33.30555277	     -1.19581780	     -8.31922518	     -0.76287632	    -17.39756080	     10.30526834	     41.63169137	     73.33826183	      0.00000000	      0.00000000	      6.76991207	    -25.67399345	     20.95223524	     57.06165624	     72.25930039	      0.00000000	      0.00000000
      0.00400000	     19.84134120	      3.22917007	      4.95576812	      0.02470448	      0.97474120	     -0.32558991	      3.01138138	     -6.48706842	    -12.32517370	     29.19637484	      0.50957287	     -6.86736211	      0.00000000	      0.00000000	    -28.32906086	      3.74275663	      5.94071172	      8.82152278	      0.15396462	     -3.58109682	      0.00000000	      0.00000000	    -33.12305137	     -1.36575996	     -8.45233893	     -0.76046805	    -17.42225493	     10.25174915	     41.63881879	     73.34855264	      0.00000000	      0.00000000	      6.98372205	    -25.73564791	     21.02056856	     57.27512586	     72.29703526	      0.00000000	      0.00000000
      0.00800000	     19.64126501	      3.34374655	      4.95677267	      0.02942480	      0.97375438	     -0.32542483	      3.49587122	     -6.55719145	    -12.40798653	     28.02440221	      0.48911809	     -7.38886663	      0.00000000	      0.00000000	    -28.49720216	      3.81770231	      5.92325933	      8.73260864	      0.15241277	     -3.47349790	      0.00000000	      0.00000000	    -33.02201457	     -1.47741012	     -8.57842762	     -0.64837624	    -17.31780686	     10.14627751	     41.36081853	     73.31099075	      0.00000000	      0.00000000	      7.28952327	    -25.86721689	     21.07826086	     57.38767445	     72.27649303	      0.00000000	      0.00000000
      0.01200000	     19.55652742	      3.42004733	      5.13080796	      0.03432639	      0.97281296	     -0.32538326	      3.76526457	     -6.58908873	    -12.80074863	     26.83499865	      0.46835908	     -7.68246310	      0.00000000	      0.00000000	    -28.75563258	      3.75245120	      5.85481664	      8.73528366	      0.15245946	     -3.23509179	      0.00000000	      0.00000000	    -33.07017634	     -1.45403621	     -8.59793898	     -1.16718268	    -17.02129249	      8.53932339	     41.86201519	     73.86341569	      0.00000000	      0.00000000	      7.86759678	    -25.99592446	     21.71675147	     57.48261581	     72.62491951	      0.00000000	      0.00000000
      0.01600000	     19.25574278	      3.60631750	      5.05888055	      0.03918371	      0.97147430	     -0.32551222	      4.45526197	     -6.80676155	    -12.95817025	     25.96187445	      0.45312019	     -7.71923640	      0.00000000	      0.00000000	    -28.83106907	      3.97547407	      5.68964256	      8.65072154	      0.15098357	     -3.05478399	      0.00000000	      0.00000000	    -32.85207697	     -1.64060745	     -8.73582184	     -1.16596091	    -17.03058772	      8.51288025	     41.83257292	     73.89977330	      0.00000000	      0.00000000	      8.08156497	    -26.04973040	     21.81563108	     57.72476587	     72.70530537	      0.00000000	      0.00000000
      0.02000000	     19.01356126	      3.72723358	      4.96165590	      0.04384846	      0.97014304	     -0.32539396	      5.10482147	     -6.92505803	    -13.12226691	     25.10399060	      0.43814729	     -7.77659926	      0.00000000	      0.00000000	    -28.93511132	      4.12699990	      5.58347897	      8.60806215	      0.15023903	     -2.86064509	      0.00000000	      0.00000000	    -32.70622426	     -1.78666744	     -8.74451927	     -1.01992011	    -17.14139079	      8.90157958	     41.65573266	     73.90399112	      0.00000000	      0.00000000	      8.42813654	    -26.13485862	     21.97142030	     57.88485501	     72.78159940	      0.00000000	      0.00000000
      0.02400000	     18.79383016	      3.83727025	      5.06661877	      0.04838923	      0.96906098	     -0.32519523	      5.55917949	     -6.93476776	    -13.27985076	     23.87798273	      0.41674942	     -8.33791287	      0.00000000	      0.00000000	    -29.01791973	      4.14663542	      5.68190615	      8.61809455	      0.15041413	     -2.68423148	      0.00000000	      0.00000000	    -32.56980149	     -1.85472674	     -9.05401705	     -0.73915381	    -17.04121848	      9.16649617	     41.22492986	     73.70470231	      0.00000000	      0.00000000	      8.72873402	    -26.31224475	     22.15036914	     57.89900201	     73.00215648	      0.00000000	      0.00000000
      0.02800000	     18.57186344	      3.94847094	      5.11120934	      0.05332757	      0.96781316	     -0.32506424	      6.04231867	     -6.98667308	    -13.49683414	     22.83202885	      0.39849408	     -8.52840181	      0.00000000	      0.00000000	    -29.09618042	      4.19615792	      5.60793549	      8.69837413	      0.15181527	     -2.52041140	      0.00000000	      0.00000000	    -32.46986574	     -1.91234105	     -9.21832588	     -0.86633702	    -16.76542637	      8.20077398	     41.28727480	     73.55566262	      0.00000000	      0.00000000	      8.88932993	    -26.38513881	     22.00825894	     58.17140231	     73.23713987	      0.00000000	      0.00000000
